<mxfile host="65bd71144e">
    <diagram id="rbZc317l5DlxP7McuAkN" name="Page-1">
        <mxGraphModel dx="1369" dy="1031" grid="0" gridSize="10" guides="1" tooltips="1" connect="1" arrows="1" fold="1" page="1" pageScale="1" pageWidth="1169" pageHeight="827" math="0" shadow="0">
            <root>
                <mxCell id="0"/>
                <mxCell id="1" parent="0"/>
                <mxCell id="3" value="&lt;font style=&quot;font-size: 34px;&quot;&gt;API&lt;/font&gt;" style="rounded=0;whiteSpace=wrap;html=1;fillColor=#b0e3e6;strokeColor=#0e8088;fontFamily=Times New Roman;labelBackgroundColor=none;fontColor=#000000;fontSize=34;" vertex="1" parent="1">
                    <mxGeometry x="56" y="78" width="114" height="56" as="geometry"/>
                </mxCell>
                <mxCell id="4" value="MongoDB" style="ellipse;whiteSpace=wrap;html=1;labelBackgroundColor=none;fontFamily=Times New Roman;fontSize=34;fillColor=#fff2cc;strokeColor=#d6b656;gradientColor=#ffd966;fontColor=#000000;" vertex="1" parent="1">
                    <mxGeometry x="33.5" y="289" width="159" height="68" as="geometry"/>
                </mxCell>
                <mxCell id="6" value="&lt;span style=&quot;font-size: 34px;&quot;&gt;Schedule&lt;/span&gt;" style="rounded=0;whiteSpace=wrap;html=1;fillColor=#b0e3e6;strokeColor=#0e8088;fontFamily=Times New Roman;labelBackgroundColor=none;fontColor=#000000;fontSize=34;" vertex="1" parent="1">
                    <mxGeometry x="301" y="79" width="162" height="55" as="geometry"/>
                </mxCell>
                <mxCell id="9" value="job&lt;br style=&quot;font-size: 34px&quot;&gt;store&lt;br&gt;" style="ellipse;whiteSpace=wrap;html=1;labelBackgroundColor=none;fontFamily=Times New Roman;fontSize=34;fillColor=#f8cecc;gradientColor=#ea6b66;strokeColor=#b85450;fontColor=#000000;" vertex="1" parent="1">
                    <mxGeometry x="485" y="272" width="160" height="145" as="geometry"/>
                </mxCell>
                <mxCell id="10" value="worker 1" style="ellipse;whiteSpace=wrap;html=1;labelBackgroundColor=none;fontFamily=Times New Roman;fontSize=34;fillColor=#f8cecc;gradientColor=#ea6b66;strokeColor=#b85450;fontColor=#000000;" vertex="1" parent="1">
                    <mxGeometry x="867" y="272" width="163" height="89" as="geometry"/>
                </mxCell>
                <mxCell id="12" value="worker 2" style="ellipse;whiteSpace=wrap;html=1;labelBackgroundColor=none;fontFamily=Times New Roman;fontSize=34;fillColor=#f8cecc;gradientColor=#ea6b66;strokeColor=#b85450;fontColor=#000000;" vertex="1" parent="1">
                    <mxGeometry x="874" y="398" width="163" height="89" as="geometry"/>
                </mxCell>
                <mxCell id="13" value="worker 8" style="ellipse;whiteSpace=wrap;html=1;labelBackgroundColor=none;fontFamily=Times New Roman;fontSize=34;fillColor=#f8cecc;gradientColor=#ea6b66;strokeColor=#b85450;fontColor=#000000;" vertex="1" parent="1">
                    <mxGeometry x="877" y="632" width="163" height="89" as="geometry"/>
                </mxCell>
                <mxCell id="14" value="Redis" style="ellipse;whiteSpace=wrap;html=1;labelBackgroundColor=none;fontFamily=Times New Roman;fontSize=34;fillColor=#fff2cc;strokeColor=#d6b656;gradientColor=#ffd966;fontColor=#000000;" vertex="1" parent="1">
                    <mxGeometry x="486" y="511" width="159" height="68" as="geometry"/>
                </mxCell>
                <mxCell id="16" value="" style="endArrow=none;dashed=1;html=1;fontFamily=Times New Roman;fontSize=34;fontColor=#000000;" edge="1" parent="1">
                    <mxGeometry width="50" height="50" relative="1" as="geometry">
                        <mxPoint x="964" y="611" as="sourcePoint"/>
                        <mxPoint x="964" y="514" as="targetPoint"/>
                    </mxGeometry>
                </mxCell>
                <mxCell id="17" value="&lt;font color=&quot;#ffffff&quot;&gt;get task&lt;/font&gt;" style="endArrow=classic;html=1;fontFamily=Times New Roman;fontSize=34;fontColor=#000000;edgeStyle=orthogonalEdgeStyle;exitX=0;exitY=0.5;exitDx=0;exitDy=0;" edge="1" parent="1" source="10" target="9">
                    <mxGeometry width="50" height="50" relative="1" as="geometry">
                        <mxPoint x="727" y="286" as="sourcePoint"/>
                        <mxPoint x="734" y="290" as="targetPoint"/>
                        <Array as="points">
                            <mxPoint x="867" y="290"/>
                        </Array>
                    </mxGeometry>
                </mxCell>
                <mxCell id="20" value="&lt;font color=&quot;#ffffff&quot;&gt;get task&lt;/font&gt;" style="endArrow=classic;html=1;fontFamily=Times New Roman;fontSize=34;fontColor=#000000;edgeStyle=orthogonalEdgeStyle;exitX=0;exitY=0.5;exitDx=0;exitDy=0;entryX=1;entryY=0.5;entryDx=0;entryDy=0;" edge="1" parent="1" source="12" target="9">
                    <mxGeometry width="50" height="50" relative="1" as="geometry">
                        <mxPoint x="481" y="312" as="sourcePoint"/>
                        <mxPoint x="531" y="262" as="targetPoint"/>
                    </mxGeometry>
                </mxCell>
                <mxCell id="21" value="get task" style="endArrow=classic;html=1;fontFamily=Times New Roman;fontSize=34;fontColor=#FFFFFF;edgeStyle=orthogonalEdgeStyle;exitX=0;exitY=0.5;exitDx=0;exitDy=0;entryX=1;entryY=1;entryDx=0;entryDy=0;" edge="1" parent="1" target="9">
                    <mxGeometry width="50" height="50" relative="1" as="geometry">
                        <mxPoint x="880.9999999999959" y="677" as="sourcePoint"/>
                        <mxPoint x="622" y="445" as="targetPoint"/>
                        <Array as="points">
                            <mxPoint x="881" y="524"/>
                            <mxPoint x="652" y="524"/>
                            <mxPoint x="652" y="395"/>
                        </Array>
                    </mxGeometry>
                </mxCell>
                <mxCell id="24" value="" style="shape=flexArrow;endArrow=classic;startArrow=classic;html=1;fontFamily=Times New Roman;fontSize=34;fontColor=#000000;startSize=13;endSize=10;sourcePerimeterSpacing=12;targetPerimeterSpacing=8;entryX=0;entryY=0.5;entryDx=0;entryDy=0;" edge="1" parent="1" target="6">
                    <mxGeometry width="100" height="100" relative="1" as="geometry">
                        <mxPoint x="170" y="106" as="sourcePoint"/>
                        <mxPoint x="270" y="6" as="targetPoint"/>
                    </mxGeometry>
                </mxCell>
                <mxCell id="25" value="celery" style="shape=flexArrow;endArrow=classic;startArrow=classic;html=1;fontFamily=Times New Roman;fontSize=34;fontColor=#FFFFFF;startSize=6.781818181818181;endSize=10;sourcePerimeterSpacing=12;targetPerimeterSpacing=8;entryX=0.431;entryY=0;entryDx=0;entryDy=0;entryPerimeter=0;startWidth=0;" edge="1" parent="1" target="9">
                    <mxGeometry width="100" height="100" relative="1" as="geometry">
                        <mxPoint x="463" y="105.09" as="sourcePoint"/>
                        <mxPoint x="594" y="105.59" as="targetPoint"/>
                        <Array as="points">
                            <mxPoint x="554" y="105"/>
                        </Array>
                    </mxGeometry>
                </mxCell>
                <mxCell id="26" value="" style="shape=flexArrow;endArrow=classic;startArrow=classic;html=1;fontFamily=Times New Roman;fontSize=34;fontColor=#000000;startSize=13;endSize=10;sourcePerimeterSpacing=12;targetPerimeterSpacing=8;entryX=0.5;entryY=1;entryDx=0;entryDy=0;" edge="1" parent="1" target="3">
                    <mxGeometry width="100" height="100" relative="1" as="geometry">
                        <mxPoint x="110" y="289" as="sourcePoint"/>
                        <mxPoint x="210" y="189" as="targetPoint"/>
                    </mxGeometry>
                </mxCell>
                <mxCell id="27" value="" style="shape=flexArrow;endArrow=classic;startArrow=classic;html=1;fontFamily=Times New Roman;fontSize=34;fontColor=#000000;startSize=13;endSize=10;sourcePerimeterSpacing=12;targetPerimeterSpacing=8;" edge="1" parent="1">
                    <mxGeometry width="100" height="100" relative="1" as="geometry">
                        <mxPoint x="563.5" y="511" as="sourcePoint"/>
                        <mxPoint x="567" y="406" as="targetPoint"/>
                    </mxGeometry>
                </mxCell>
            </root>
        </mxGraphModel>
    </diagram>
</mxfile>